<?xml version="1.0" encoding="iso-8859-1"?>
<!-- Generator: Adobe Illustrator 19.0.0, SVG Export Plug-In . SVG Version: 6.00 Build 0)  -->
<svg version="1.1" id="Capa_1" xmlns="http://www.w3.org/2000/svg" xmlns:xlink="http://www.w3.org/1999/xlink" x="0px" y="0px"
	 viewBox="0 0 512 512" style="enable-background:new 0 0 512 512;" xml:space="preserve">
<g>
	<g transform="translate(7 4)">
		<path style="fill:#E7EBF4;" d="M97.34,211.477c-2.939-5.46-8.235-9.256-14.349-10.285c-6.114-1.029-12.361,0.824-16.926,5.02
			c-4.717,6.648-6.22,15.055-4.099,22.925c2.537,12.417,6.113,24.599,10.692,36.417c2.391,10.825,6.258,21.271,11.494,31.043
			c1.811,3.573,5.293,6.001,9.272,6.464s7.925-1.099,10.509-4.161h290.133c2.583,3.061,6.53,4.624,10.509,4.16
			c3.979-0.463,7.461-2.891,9.271-6.464c5.236-9.772,9.103-20.217,11.494-31.043c4.579-11.818,8.155-24,10.692-36.417
			c2.121-7.871,0.618-16.277-4.099-22.925c-4.564-4.197-10.811-6.05-16.926-5.02c-6.114,1.029-11.41,4.826-14.349,10.285
			L97.34,211.477z"/>
		<path style="fill:#B2CDF8;" d="M402.515,201.483c-0.427,17.92-1.536,32.341-1.877,36.608c-0.085,0.939-0.085,1.365-0.085,1.365
			s-8.277,66.987-8.277,92.075c-1.617,16.622-7.722,32.491-17.664,45.909c-5.175,7.858-10.877,15.356-17.067,22.443
			c-2.219,2.56-4.437,4.863-6.485,6.997c-1.621,1.622-3.243,3.244-4.949,4.865c-4.523,4.181-9.557,8.448-14.677,12.715
			c-13.141,10.923-27.392,21.845-38.144,32.683c-7.857,8.496-18.238,14.241-29.611,16.384c-1.1,0.193-2.212,0.307-3.328,0.341
			h-22.699c-0.487-0.018-0.972-0.075-1.451-0.171c-0.512,0-1.109-0.085-1.877-0.171c-11.372-2.143-21.754-7.888-29.611-16.384
			c-10.752-10.837-25.003-21.76-38.144-32.683c-5.12-4.267-10.155-8.533-14.677-12.715c-1.707-1.621-3.328-3.243-4.949-4.865
			c-2.048-2.133-4.267-4.436-6.485-6.997c-6.19-7.087-11.891-14.585-17.067-22.443c-9.941-13.418-16.047-29.287-17.664-45.908
			c0-25.089-8.277-92.075-8.277-92.075s0-0.427-0.085-1.365c-0.341-4.267-1.451-18.689-1.877-36.608
			c-0.597-29.44,0.768-68.267,10.24-87.636C122.109,80.65,170.92,30.901,236.2,30.133h24.149
			c65.963,0,115.456,50.261,131.925,83.713C401.747,133.216,403.112,172.043,402.515,201.483z"/>
		<path style="fill:#E7EBF4;" d="M376.915,201.483c-0.427,17.92-1.536,32.341-1.877,36.608c-0.085,0.939-0.085,1.365-0.085,1.365
			s-8.277,66.987-8.277,92.075c-1.617,16.622-7.722,32.491-17.664,45.909c-5.175,7.858-10.877,15.356-17.067,22.443
			c-2.219,2.56-4.437,4.863-6.485,6.997c-1.621,1.622-3.243,3.244-4.949,4.865c-4.523,4.181-9.557,8.448-14.677,12.715
			c-13.141,10.923-27.392,21.845-38.144,32.683c-7.857,8.496-18.238,14.241-29.611,16.384c-0.768,0.085-1.365,0.171-1.877,0.171
			s-1.109-0.085-1.877-0.171c-11.372-2.143-21.754-7.888-29.611-16.384c-10.752-10.837-25.003-21.76-38.144-32.683
			c-5.12-4.267-10.155-8.533-14.677-12.715c-1.707-1.621-3.328-3.243-4.949-4.865c-2.048-2.133-4.267-4.436-6.485-6.997
			c-6.19-7.087-11.891-14.585-17.067-22.443c-9.941-13.418-16.047-29.287-17.664-45.908c0-25.089-8.277-92.075-8.277-92.075
			s0-0.427-0.085-1.365c-0.341-4.267-1.451-18.689-1.877-36.608c-0.597-29.44,0.768-68.267,10.24-87.636
			C122.109,80.65,170.92,30.901,236.2,30.133c65.28,0.768,114.091,50.517,130.475,83.713
			C376.147,133.216,377.512,172.043,376.915,201.483z"/>
		<g>
			<path style="fill:#FFFFFF;" d="M72.659,265.554c2.391,10.826,6.259,21.271,11.494,31.044c1.798,3.54,5.24,5.954,9.181,6.439
				c3.941,0.485,7.865-1.024,10.467-4.023c1.114,12.718,1.924,24.668,1.924,32.518c1.617,16.621,7.722,32.49,17.664,45.909
				c5.175,7.858,10.877,15.356,17.067,22.443c2.218,2.56,4.437,4.863,6.485,6.997c1.621,1.622,3.243,3.244,4.949,4.865
				c4.523,4.181,9.557,8.448,14.677,12.715c13.142,10.923,27.392,21.845,38.144,32.683c7.857,8.496,18.238,14.241,29.611,16.384
				c0.768,0.085,1.365,0.171,1.877,0.171c0.478,0.096,0.963,0.153,1.451,0.171h22.699c0,0,0.692-0.041,1.669-0.141l-0.219-0.03
				c-0.512,0-1.109-0.085-1.877-0.171c-11.372-2.143-21.754-7.888-29.611-16.384c-10.752-10.837-25.003-21.76-38.144-32.683
				c-5.12-4.267-10.155-8.533-14.677-12.715c-1.707-1.621-3.328-3.243-4.949-4.865c-2.048-2.133-4.267-4.436-6.485-6.997
				c-6.19-7.087-11.891-14.585-17.067-22.443c-9.941-13.418-16.047-29.287-17.664-45.908c0-7.85-0.811-19.8-1.924-32.518
				c-2.602,2.999-6.526,4.508-10.467,4.023s-7.383-2.898-9.181-6.439c-5.236-9.772-9.103-20.218-11.494-31.044
				c-4.579-11.818-8.155-23.999-10.692-36.417c-2.121-7.87-0.618-16.277,4.098-22.925c0.151-0.15,0.327-0.237,0.481-0.38
				c-7.431-6.777-18.85-6.61-26.081,0.38c-4.717,6.648-6.22,15.055-4.098,22.925C64.504,241.554,68.08,253.736,72.659,265.554z"/>
			<path style="fill:#FFFFFF;" d="M261.152,30.171c-0.271-0.002-0.531-0.037-0.803-0.037H236.2
				c-65.28,0.768-114.091,50.517-130.475,83.713c-9.472,19.37-10.837,58.197-10.24,87.637c0.015,0.625,0.039,1.192,0.055,1.805
				c8.922-4.673,19.923-2.058,25.788,6.129c-0.092-2.558-0.177-5.187-0.243-7.934c-0.597-29.44,0.768-68.267,10.24-87.636
				C147.654,80.762,196.202,31.264,261.152,30.171z"/>
		</g>
	</g>
	<g>
		<path style="fill:#51A1FF;" d="M0,110.933c0,4.713,3.821,8.533,8.533,8.533s8.533-3.821,8.533-8.533V25.6
			c0.003-4.712,3.822-8.53,8.533-8.533h85.333c4.713,0,8.533-3.821,8.533-8.533S115.646,0,110.933,0H25.6
			C11.468,0.015,0.015,11.468,0,25.6V110.933z"/>
		<path style="fill:#51A1FF;" d="M486.4,0h-85.333c-4.713,0-8.533,3.821-8.533,8.533s3.82,8.533,8.533,8.533H486.4
			c4.712,0.003,8.53,3.822,8.533,8.533v85.333c0,4.713,3.821,8.533,8.533,8.533s8.533-3.821,8.533-8.533V25.6
			C511.985,11.468,500.532,0.015,486.4,0z"/>
		<path style="fill:#51A1FF;" d="M503.467,392.533c-2.264-0.001-4.435,0.897-6.035,2.498c-1.601,1.601-2.499,3.772-2.498,6.035
			V486.4c-0.003,4.712-3.822,8.53-8.533,8.533h-85.333c-4.713,0-8.533,3.821-8.533,8.533s3.82,8.533,8.533,8.533H486.4
			c14.132-0.015,25.585-11.468,25.6-25.6v-85.333c0.001-2.264-0.897-4.435-2.498-6.035
			C507.901,393.431,505.73,392.532,503.467,392.533z"/>
		<path style="fill:#51A1FF;" d="M8.533,392.533c-2.264-0.001-4.435,0.897-6.035,2.498c-1.601,1.601-2.499,3.772-2.498,6.035V486.4
			c0.015,14.132,11.468,25.585,25.6,25.6h85.333c4.713,0,8.533-3.82,8.533-8.533s-3.821-8.533-8.533-8.533H25.6
			c-4.712-0.003-8.53-3.822-8.533-8.533v-85.333c0.001-2.264-0.897-4.435-2.498-6.035C12.968,393.431,10.797,392.532,8.533,392.533z
			"/>
		<path style="fill:#51A1FF;" d="M503.467,162.133h-86.42c-0.535-16.48-3.953-32.74-10.097-48.042
			C389.433,78.517,337.8,25.6,267.342,25.6h-22.683c-70.458,0-122.092,52.917-139.608,88.492
			c-6.144,15.302-9.561,31.561-10.095,48.042H8.533c-4.713,0-8.533,3.821-8.533,8.533c0,4.713,3.821,8.533,8.533,8.533H94.08
			c-0.185,6.252-0.236,12.426-0.194,18.352c-1.55-0.504-3.14-0.875-4.752-1.11c-8.173-1.019-16.352,1.842-22.108,7.733
			c-6.724,8.586-9.113,19.793-6.475,30.375c2.23,11.462,5.439,22.711,9.591,33.625l1.45,4.175c1.017,2.933,1.875,6.033,2.742,9.142
			c1.861,8.559,5.215,16.722,9.908,24.117c3.729,5.669,9.802,9.369,16.55,10.083c0.408,0.025,0.842,0.042,1.292,0.042
			c0.356,0,0.778-0.081,1.155-0.103c0.566,7.799,0.936,14.797,0.936,19.903c0,29.183,27.458,64.867,43.692,81.35
			c9.386,9.094,19.246,17.683,29.541,25.733c9.819,7.665,19.227,15.843,28.183,24.5c10.101,11.155,24.069,18.049,39.067,19.283
			h22.683c14.998-1.234,28.965-8.128,39.067-19.283c8.955-8.65,18.357-16.825,28.167-24.492
			c10.305-8.053,20.175-16.649,29.567-25.75c16.225-16.475,43.683-52.158,43.683-81.342c0-5.105,0.37-12.103,0.936-19.903
			c0.377,0.022,0.799,0.103,1.155,0.103c0.45,0,0.883-0.017,1.292-0.042c6.761-0.719,12.844-4.432,16.575-10.117
			c4.681-7.386,8.026-15.538,9.883-24.083c0.867-3.108,1.725-6.208,2.742-9.142l1.45-4.175c4.15-10.905,7.356-22.146,9.583-33.6
			c2.65-10.597,0.253-21.824-6.492-30.417c-5.749-5.885-13.92-8.74-22.083-7.717c-1.611,0.235-3.199,0.607-4.747,1.11
			c0.041-5.924-0.01-12.098-0.196-18.352h85.544c4.713,0,8.533-3.821,8.533-8.533C512,165.954,508.18,162.133,503.467,162.133z
			 M120.367,121.625C135.4,91.1,182.433,42.667,244.658,42.667h22.683c62.225,0,109.258,48.433,124.292,78.958
			c5.042,12.934,7.844,26.633,8.285,40.508h-287.84C112.518,148.258,115.321,134.558,120.367,121.625z M351.983,404.9
			c-1.644,1.669-3.442,3.356-5.267,5.048l-34.39-12.878l16.203-21.603H358.4v22.487C356.178,400.496,354.015,402.838,351.983,404.9z
			 M160.025,404.909c-2.034-2.066-4.201-4.41-6.425-6.955v-22.487h29.871l16.203,21.603l-34.39,12.878
			C163.461,408.259,161.666,406.574,160.025,404.909L160.025,404.909z M173.912,179.2l16.169,32.515l-45.014-5.623V179.2H173.912z
			 M328.529,358.4l-18.29-24.387l48.16-42.138V358.4H328.529z M294.404,392.533h-29.87v-51.2h29.87l19.196,25.6L294.404,392.533z
			 M217.596,392.533l-19.196-25.6l19.196-25.6h29.87v51.2H217.596z M183.471,358.4H153.6v-66.525l48.16,42.138L183.471,358.4z
			 M291.042,267.15l-26.509,10.592v-86.394l33.529,33.715L291.042,267.15z M247.467,277.742l-26.508-10.592l-7.021-42.088
			l33.529-33.715V277.742z M211.126,281.6l36.341,14.522v28.145h-30.925L167.779,281.6H211.126z M295.458,324.267h-30.925v-28.145
			l36.341-14.522h43.347L295.458,324.267z M304.857,207.694L276.52,179.2h42.506L304.857,207.694z M207.143,207.694L192.975,179.2
			h42.506L207.143,207.694z M137.058,222.292l60.371,7.538l5.791,34.704h-54.162l-31.21-37.446L137.058,222.292z M247.467,409.6
			v35.34l-19.633-35.34H247.467z M264.533,444.94V409.6h19.633L264.533,444.94z M362.942,264.533H308.78l5.791-34.704l60.371-7.538
			l19.21,4.796L362.942,264.533z M366.933,206.092l-45.014,5.623l16.169-32.515h28.845V206.092z M128,179.2v27.766l-16.394,4.097
			c-0.028-0.046-0.027-0.1-0.056-0.146c-0.105-0.167-0.252-0.29-0.359-0.454c-0.275-9.848-0.33-20.575-0.009-31.262H128z
			 M98.083,295.625c-3.448-5.795-5.917-12.119-7.308-18.717c-0.967-3.45-1.925-6.883-3.05-10.142l-1.475-4.225
			c-3.83-10.012-6.799-20.333-8.875-30.85c-1.486-5.169-0.872-10.715,1.708-15.433c2.115-2.172,5.124-3.229,8.133-2.859
			c2.667,0.376,5.151,1.57,7.11,3.418c0.586,15.309,1.54,26.291,1.665,27.666c0.048,0.429,3.432,28.052,5.833,54.143
			C100.253,298.116,98.923,297.048,98.083,295.625z M119.379,303.22c0.001-0.507-0.044-1.013-0.135-1.511
			c-1.796-20.506-4.319-42.543-5.553-52.944l22.843,27.4v99.109c-8.507-11.669-13.783-25.378-15.292-39.74
			C121.242,327.602,120.461,315.788,119.379,303.22L119.379,303.22z M188.167,429.367c-2.728-2.217-5.471-4.453-8.193-6.697
			l29.471-11.037l31.772,57.19c-9.007-2.129-17.175-6.895-23.459-13.69C208.358,446.026,198.48,437.425,188.167,429.367
			L188.167,429.367z M294.242,455.133c-6.285,6.797-14.454,11.566-23.463,13.698l31.776-57.198l29.47,11.035
			c-2.727,2.248-5.475,4.487-8.208,6.706C313.511,437.433,303.639,446.031,294.242,455.133L294.242,455.133z M375.467,375.274
			v-99.11l22.843-27.4c-1.253,10.573-3.765,32.529-5.553,52.942c-0.091,0.5-0.137,1.007-0.135,1.515
			c-1.083,12.572-1.863,24.383-1.863,32.313C389.249,349.895,383.974,363.604,375.467,375.274z M424.783,213.4
			c2.998-0.366,5.995,0.685,8.108,2.842c2.605,4.725,3.225,10.292,1.725,15.475c-2.073,10.509-5.039,20.821-8.867,30.825
			l-1.475,4.225c-1.125,3.258-2.083,6.692-3.05,10.142c-1.388,6.585-3.849,12.896-7.283,18.683
			c-0.843,1.437-2.182,2.516-3.766,3.034c2.404-26.118,5.796-53.814,5.866-54.426c0.113-1.279,1.057-12.163,1.638-27.388
			C419.638,214.968,422.12,213.775,424.783,213.4z M400.815,210.456c-0.109,0.167-0.258,0.292-0.365,0.461
			c-0.029,0.046-0.028,0.1-0.056,0.146L384,206.966V179.2h16.816C401.14,189.896,401.088,200.623,400.815,210.456L400.815,210.456z"
			/>
	</g>
</g>
<g>
</g>
<g>
</g>
<g>
</g>
<g>
</g>
<g>
</g>
<g>
</g>
<g>
</g>
<g>
</g>
<g>
</g>
<g>
</g>
<g>
</g>
<g>
</g>
<g>
</g>
<g>
</g>
<g>
</g>
</svg>
